{
	"asset":{
		"generator":"Khronos glTF Blender I/O v5.1.19",
		"version":"2.0"
	},
	"scene":0,
	"scenes":[
		{
			"name":"Scene",
			"nodes":[
				28
			]
		}
	],
	"nodes":[
		{
			"name":"Bone.003",
			"translation":[
				0,
				0.25,
				0
			]
		},
		{
			"children":[
				0
			],
			"name":"Bone.002",
			"translation":[
				0,
				0.24999994039535522,
				0
			]
		},
		{
			"name":"Bone.006.L.001",
			"rotation":[
				4.24311830116153e-09,
				1.8889117825438007e-08,
				0.0449453629553318,
				0.9989894032478333
			],
			"scale":[
				0.9999999403953552,
				1,
				1
			],
			"translation":[
				-8.195638656616211e-08,
				0.23132336139678955,
				1.2434497875801753e-14
			]
		},
		{
			"children":[
				2
			],
			"name":"Bone.005.L.001",
			"rotation":[
				-1.7574686594912237e-08,
				-7.757292586063613e-09,
				-0.1666683852672577,
				0.9860129952430725
			],
			"scale":[
				1.0000001192092896,
				1,
				1
			],
			"translation":[
				-1.862645149230957e-08,
				0.24915866553783417,
				8.43769498715119e-15
			]
		},
		{
			"children":[
				3
			],
			"name":"Bone.004.L.001",
			"rotation":[
				-3.002586268507912e-08,
				-3.845642382316328e-08,
				-0.6154122948646545,
				0.7882054448127747
			],
			"scale":[
				0.9999999403953552,
				0.9999999403953552,
				1
			],
			"translation":[
				0,
				0.24999994039535522,
				0
			]
		},
		{
			"name":"Bone.006.R.001",
			"rotation":[
				4.24311830116153e-09,
				-1.8889117825438007e-08,
				-0.0449453629553318,
				0.9989894032478333
			],
			"scale":[
				0.9999999403953552,
				1,
				1
			],
			"translation":[
				8.195638656616211e-08,
				0.23132336139678955,
				1.2434497875801753e-14
			]
		},
		{
			"children":[
				5
			],
			"name":"Bone.005.R.001",
			"rotation":[
				-1.7574686594912237e-08,
				7.757292586063613e-09,
				0.1666683852672577,
				0.9860129952430725
			],
			"scale":[
				1.0000001192092896,
				1,
				1
			],
			"translation":[
				1.862645149230957e-08,
				0.24915866553783417,
				8.43769498715119e-15
			]
		},
		{
			"children":[
				6
			],
			"name":"Bone.004.R.001",
			"rotation":[
				-3.002586268507912e-08,
				3.845642382316328e-08,
				0.6154122948646545,
				0.7882054448127747
			],
			"scale":[
				0.9999999403953552,
				0.9999999403953552,
				1
			],
			"translation":[
				0,
				0.24999994039535522,
				0
			]
		},
		{
			"name":"Bone.004",
			"translation":[
				0.8837869167327881,
				-0.5360737442970276,
				0
			]
		},
		{
			"children":[
				1,
				4,
				7,
				8
			],
			"name":"Bone.001",
			"translation":[
				0,
				0.24999994039535522,
				0
			]
		},
		{
			"name":"Bone.005",
			"rotation":[
				-0.7071067690849304,
				0,
				0,
				0.7071067690849304
			],
			"translation":[
				0,
				-0.33088111877441406,
				0
			]
		},
		{
			"children":[
				9,
				10
			],
			"name":"Bone",
			"translation":[
				0,
				-2.9802322387695312e-08,
				0
			]
		},
		{
			"name":"Bone.007.L",
			"rotation":[
				-8.429369557916289e-08,
				-3.0908619663705394e-08,
				-0.7071067690849304,
				0.7071067690849304
			],
			"translation":[
				8.881784197001252e-16,
				0.1699589192867279,
				0
			]
		},
		{
			"children":[
				12
			],
			"name":"Bone.006.L",
			"translation":[
				8.881784197001252e-16,
				0.11897125840187073,
				0
			]
		},
		{
			"children":[
				13
			],
			"name":"Bone.005.L",
			"rotation":[
				-0.7071067690849304,
				-2.6692537957728746e-08,
				2.6692537957728746e-08,
				0.7071067690849304
			],
			"translation":[
				0,
				0.13596715033054352,
				-2.9802322387695312e-08
			]
		},
		{
			"children":[
				14
			],
			"name":"Bone.004.L",
			"rotation":[
				-0.5,
				-0.5,
				-0.5,
				0.5
			],
			"translation":[
				0,
				-2.9802322387695312e-08,
				0
			]
		},
		{
			"name":"Bone.007.R",
			"rotation":[
				-8.429369557916289e-08,
				3.0908619663705394e-08,
				0.7071067690849304,
				0.7071067690849304
			],
			"translation":[
				-8.881784197001252e-16,
				0.1699589192867279,
				0
			]
		},
		{
			"children":[
				16
			],
			"name":"Bone.006.R",
			"translation":[
				-8.881784197001252e-16,
				0.11897125840187073,
				0
			]
		},
		{
			"children":[
				17
			],
			"name":"Bone.005.R",
			"rotation":[
				-0.7071067690849304,
				2.6692537957728746e-08,
				-2.6692537957728746e-08,
				0.7071067690849304
			],
			"translation":[
				0,
				0.13596715033054352,
				-2.9802322387695312e-08
			]
		},
		{
			"children":[
				18
			],
			"name":"Bone.004.R",
			"rotation":[
				-0.5,
				0.5,
				0.5,
				0.5
			],
			"translation":[
				0,
				-2.9802322387695312e-08,
				0
			]
		},
		{
			"mesh":0,
			"name":"body",
			"skin":0
		},
		{
			"mesh":1,
			"name":"head",
			"skin":0
		},
		{
			"mesh":2,
			"name":"left_arm",
			"skin":0
		},
		{
			"mesh":3,
			"name":"left_leg",
			"skin":0
		},
		{
			"mesh":4,
			"name":"orb",
			"skin":0
		},
		{
			"mesh":5,
			"name":"right_arm",
			"skin":0
		},
		{
			"mesh":6,
			"name":"right_leg",
			"skin":0
		},
		{
			"mesh":7,
			"name":"staff",
			"skin":0
		},
		{
			"children":[
				20,
				21,
				22,
				23,
				24,
				25,
				26,
				27,
				11,
				15,
				19
			],
			"name":"Armature",
			"scale":[
				4.296029567718506,
				4.296029567718506,
				4.296029567718506
			],
			"translation":[
				0,
				1.4400954246520996,
				0
			]
		}
	],
	"animations":[
		{
			"channels":[
				{
					"sampler":0,
					"target":{
						"node":11,
						"path":"translation"
					}
				},
				{
					"sampler":1,
					"target":{
						"node":11,
						"path":"rotation"
					}
				},
				{
					"sampler":2,
					"target":{
						"node":11,
						"path":"scale"
					}
				},
				{
					"sampler":3,
					"target":{
						"node":9,
						"path":"translation"
					}
				},
				{
					"sampler":4,
					"target":{
						"node":9,
						"path":"rotation"
					}
				},
				{
					"sampler":5,
					"target":{
						"node":9,
						"path":"scale"
					}
				},
				{
					"sampler":6,
					"target":{
						"node":1,
						"path":"translation"
					}
				},
				{
					"sampler":7,
					"target":{
						"node":1,
						"path":"rotation"
					}
				},
				{
					"sampler":8,
					"target":{
						"node":1,
						"path":"scale"
					}
				},
				{
					"sampler":9,
					"target":{
						"node":0,
						"path":"translation"
					}
				},
				{
					"sampler":10,
					"target":{
						"node":0,
						"path":"rotation"
					}
				},
				{
					"sampler":11,
					"target":{
						"node":0,
						"path":"scale"
					}
				},
				{
					"sampler":12,
					"target":{
						"node":4,
						"path":"translation"
					}
				},
				{
					"sampler":13,
					"target":{
						"node":4,
						"path":"rotation"
					}
				},
				{
					"sampler":14,
					"target":{
						"node":4,
						"path":"scale"
					}
				},
				{
					"sampler":15,
					"target":{
						"node":3,
						"path":"translation"
					}
				},
				{
					"sampler":16,
					"target":{
						"node":3,
						"path":"rotation"
					}
				},
				{
					"sampler":17,
					"target":{
						"node":3,
						"path":"scale"
					}
				},
				{
					"sampler":18,
					"target":{
						"node":2,
						"path":"translation"
					}
				},
				{
					"sampler":19,
					"target":{
						"node":2,
						"path":"rotation"
					}
				},
				{
					"sampler":20,
					"target":{
						"node":2,
						"path":"scale"
					}
				},
				{
					"sampler":21,
					"target":{
						"node":7,
						"path":"translation"
					}
				},
				{
					"sampler":22,
					"target":{
						"node":7,
						"path":"rotation"
					}
				},
				{
					"sampler":23,
					"target":{
						"node":7,
						"path":"scale"
					}
				},
				{
					"sampler":24,
					"target":{
						"node":6,
						"path":"translation"
					}
				},
				{
					"sampler":25,
					"target":{
						"node":6,
						"path":"rotation"
					}
				},
				{
					"sampler":26,
					"target":{
						"node":6,
						"path":"scale"
					}
				},
				{
					"sampler":27,
					"target":{
						"node":5,
						"path":"translation"
					}
				},
				{
					"sampler":28,
					"target":{
						"node":5,
						"path":"rotation"
					}
				},
				{
					"sampler":29,
					"target":{
						"node":5,
						"path":"scale"
					}
				},
				{
					"sampler":30,
					"target":{
						"node":8,
						"path":"translation"
					}
				},
				{
					"sampler":31,
					"target":{
						"node":8,
						"path":"rotation"
					}
				},
				{
					"sampler":32,
					"target":{
						"node":8,
						"path":"scale"
					}
				},
				{
					"sampler":33,
					"target":{
						"node":10,
						"path":"translation"
					}
				},
				{
					"sampler":34,
					"target":{
						"node":10,
						"path":"rotation"
					}
				},
				{
					"sampler":35,
					"target":{
						"node":10,
						"path":"scale"
					}
				},
				{
					"sampler":36,
					"target":{
						"node":15,
						"path":"translation"
					}
				},
				{
					"sampler":37,
					"target":{
						"node":15,
						"path":"rotation"
					}
				},
				{
					"sampler":38,
					"target":{
						"node":15,
						"path":"scale"
					}
				},
				{
					"sampler":39,
					"target":{
						"node":14,
						"path":"translation"
					}
				},
				{
					"sampler":40,
					"target":{
						"node":14,
						"path":"rotation"
					}
				},
				{
					"sampler":41,
					"target":{
						"node":14,
						"path":"scale"
					}
				},
				{
					"sampler":42,
					"target":{
						"node":13,
						"path":"translation"
					}
				},
				{
					"sampler":43,
					"target":{
						"node":13,
						"path":"rotation"
					}
				},
				{
					"sampler":44,
					"target":{
						"node":13,
						"path":"scale"
					}
				},
				{
					"sampler":45,
					"target":{
						"node":12,
						"path":"translation"
					}
				},
				{
					"sampler":46,
					"target":{
						"node":12,
						"path":"rotation"
					}
				},
				{
					"sampler":47,
					"target":{
						"node":12,
						"path":"scale"
					}
				},
				{
					"sampler":48,
					"target":{
						"node":19,
						"path":"translation"
					}
				},
				{
					"sampler":49,
					"target":{
						"node":19,
						"path":"rotation"
					}
				},
				{
					"sampler":50,
					"target":{
						"node":19,
						"path":"scale"
					}
				},
				{
					"sampler":51,
					"target":{
						"node":18,
						"path":"translation"
					}
				},
				{
					"sampler":52,
					"target":{
						"node":18,
						"path":"rotation"
					}
				},
				{
					"sampler":53,
					"target":{
						"node":18,
						"path":"scale"
					}
				},
				{
					"sampler":54,
					"target":{
						"node":17,
						"path":"translation"
					}
				},
				{
					"sampler":55,
					"target":{
						"node":17,
						"path":"rotation"
					}
				},
				{
					"sampler":56,
					"target":{
						"node":17,
						"path":"scale"
					}
				},
				{
					"sampler":57,
					"target":{
						"node":16,
						"path":"translation"
					}
				},
				{
					"sampler":58,
					"target":{
						"node":16,
						"path":"rotation"
					}
				},
				{
					"sampler":59,
					"target":{
						"node":16,
						"path":"scale"
					}
				}
			],
			"name":"attack",
			"samplers":[
				{
					"input":85,
					"interpolation":"LINEAR",
					"output":86
				},
				{
					"input":87,
					"interpolation":"STEP",
					"output":88
				},
				{
					"input":87,
					"interpolation":"STEP",
					"output":89
				},
				{
					"input":87,
					"interpolation":"STEP",
					"output":90
				},
				{
					"input":85,
					"interpolation":"LINEAR",
					"output":91
				},
				{
					"input":87,
					"interpolation":"STEP",
					"output":89
				},
				{
					"input":87,
					"interpolation":"STEP",
					"output":90
				},
				{
					"input":87,
					"interpolation":"STEP",
					"output":88
				},
				{
					"input":87,
					"interpolation":"STEP",
					"output":89
				},
				{
					"input":87,
					"interpolation":"STEP",
					"output":92
				},
				{
					"input":85,
					"interpolation":"LINEAR",
					"output":93
				},
				{
					"input":87,
					"interpolation":"STEP",
					"output":89
				},
				{
					"input":87,
					"interpolation":"STEP",
					"output":94
				},
				{
					"input":85,
					"interpolation":"LINEAR",
					"output":95
				},
				{
					"input":87,
					"interpolation":"STEP",
					"output":89
				},
				{
					"input":87,
					"interpolation":"STEP",
					"output":96
				},
				{
					"input":85,
					"interpolation":"LINEAR",
					"output":97
				},
				{
					"input":87,
					"interpolation":"STEP",
					"output":98
				},
				{
					"input":87,
					"interpolation":"STEP",
					"output":99
				},
				{
					"input":85,
					"interpolation":"LINEAR",
					"output":100
				},
				{
					"input":87,
					"interpolation":"STEP",
					"output":101
				},
				{
					"input":87,
					"interpolation":"STEP",
					"output":102
				},
				{
					"input":85,
					"interpolation":"LINEAR",
					"output":103
				},
				{
					"input":87,
					"interpolation":"STEP",
					"output":89
				},
				{
					"input":87,
					"interpolation":"STEP",
					"output":104
				},
				{
					"input":85,
					"interpolation":"LINEAR",
					"output":105
				},
				{
					"input":87,
					"interpolation":"STEP",
					"output":89
				},
				{
					"input":87,
					"interpolation":"STEP",
					"output":106
				},
				{
					"input":85,
					"interpolation":"LINEAR",
					"output":107
				},
				{
					"input":87,
					"interpolation":"STEP",
					"output":108
				},
				{
					"input":85,
					"interpolation":"LINEAR",
					"output":109
				},
				{
					"input":85,
					"interpolation":"LINEAR",
					"output":110
				},
				{
					"input":87,
					"interpolation":"STEP",
					"output":89
				},
				{
					"input":87,
					"interpolation":"STEP",
					"output":111
				},
				{
					"input":87,
					"interpolation":"STEP",
					"output":112
				},
				{
					"input":87,
					"interpolation":"STEP",
					"output":89
				},
				{
					"input":85,
					"interpolation":"LINEAR",
					"output":113
				},
				{
					"input":87,
					"interpolation":"STEP",
					"output":114
				},
				{
					"input":87,
					"interpolation":"STEP",
					"output":89
				},
				{
					"input":87,
					"interpolation":"STEP",
					"output":115
				},
				{
					"input":85,
					"interpolation":"LINEAR",
					"output":116
				},
				{
					"input":87,
					"interpolation":"STEP",
					"output":89
				},
				{
					"input":87,
					"interpolation":"STEP",
					"output":117
				},
				{
					"input":85,
					"interpolation":"LINEAR",
					"output":118
				},
				{
					"input":87,
					"interpolation":"STEP",
					"output":89
				},
				{
					"input":87,
					"interpolation":"STEP",
					"output":119
				},
				{
					"input":85,
					"interpolation":"LINEAR",
					"output":120
				},
				{
					"input":87,
					"interpolation":"STEP",
					"output":89
				},
				{
					"input":85,
					"interpolation":"LINEAR",
					"output":121
				},
				{
					"input":87,
					"interpolation":"STEP",
					"output":122
				},
				{
					"input":87,
					"interpolation":"STEP",
					"output":89
				},
				{
					"input":87,
					"interpolation":"STEP",
					"output":123
				},
				{
					"input":85,
					"interpolation":"LINEAR",
					"output":124
				},
				{
					"input":87,
					"interpolation":"STEP",
					"output":89
				},
				{
					"input":87,
					"interpolation":"STEP",
					"output":125
				},
				{
					"input":85,
					"interpolation":"LINEAR",
					"output":126
				},
				{
					"input":87,
					"interpolation":"STEP",
					"output":89
				},
				{
					"input":87,
					"interpolation":"STEP",
					"output":127
				},
				{
					"input":85,
					"interpolation":"LINEAR",
					"output":128
				},
				{
					"input":87,
					"interpolation":"STEP",
					"output":89
				}
			]
		},
		{
			"channels":[
				{
					"sampler":0,
					"target":{
						"node":11,
						"path":"translation"
					}
				},
				{
					"sampler":1,
					"target":{
						"node":11,
						"path":"rotation"
					}
				},
				{
					"sampler":2,
					"target":{
						"node":11,
						"path":"scale"
					}
				},
				{
					"sampler":3,
					"target":{
						"node":9,
						"path":"translation"
					}
				},
				{
					"sampler":4,
					"target":{
						"node":9,
						"path":"rotation"
					}
				},
				{
					"sampler":5,
					"target":{
						"node":9,
						"path":"scale"
					}
				},
				{
					"sampler":6,
					"target":{
						"node":1,
						"path":"translation"
					}
				},
				{
					"sampler":7,
					"target":{
						"node":1,
						"path":"rotation"
					}
				},
				{
					"sampler":8,
					"target":{
						"node":1,
						"path":"scale"
					}
				},
				{
					"sampler":9,
					"target":{
						"node":0,
						"path":"translation"
					}
				},
				{
					"sampler":10,
					"target":{
						"node":0,
						"path":"rotation"
					}
				},
				{
					"sampler":11,
					"target":{
						"node":0,
						"path":"scale"
					}
				},
				{
					"sampler":12,
					"target":{
						"node":4,
						"path":"translation"
					}
				},
				{
					"sampler":13,
					"target":{
						"node":4,
						"path":"rotation"
					}
				},
				{
					"sampler":14,
					"target":{
						"node":4,
						"path":"scale"
					}
				},
				{
					"sampler":15,
					"target":{
						"node":3,
						"path":"translation"
					}
				},
				{
					"sampler":16,
					"target":{
						"node":3,
						"path":"rotation"
					}
				},
				{
					"sampler":17,
					"target":{
						"node":3,
						"path":"scale"
					}
				},
				{
					"sampler":18,
					"target":{
						"node":2,
						"path":"translation"
					}
				},
				{
					"sampler":19,
					"target":{
						"node":2,
						"path":"rotation"
					}
				},
				{
					"sampler":20,
					"target":{
						"node":2,
						"path":"scale"
					}
				},
				{
					"sampler":21,
					"target":{
						"node":7,
						"path":"translation"
					}
				},
				{
					"sampler":22,
					"target":{
						"node":7,
						"path":"rotation"
					}
				},
				{
					"sampler":23,
					"target":{
						"node":7,
						"path":"scale"
					}
				},
				{
					"sampler":24,
					"target":{
						"node":6,
						"path":"translation"
					}
				},
				{
					"sampler":25,
					"target":{
						"node":6,
						"path":"rotation"
					}
				},
				{
					"sampler":26,
					"target":{
						"node":6,
						"path":"scale"
					}
				},
				{
					"sampler":27,
					"target":{
						"node":5,
						"path":"translation"
					}
				},
				{
					"sampler":28,
					"target":{
						"node":5,
						"path":"rotation"
					}
				},
				{
					"sampler":29,
					"target":{
						"node":5,
						"path":"scale"
					}
				},
				{
					"sampler":30,
					"target":{
						"node":8,
						"path":"translation"
					}
				},
				{
					"sampler":31,
					"target":{
						"node":8,
						"path":"rotation"
					}
				},
				{
					"sampler":32,
					"target":{
						"node":8,
						"path":"scale"
					}
				},
				{
					"sampler":33,
					"target":{
						"node":10,
						"path":"translation"
					}
				},
				{
					"sampler":34,
					"target":{
						"node":10,
						"path":"rotation"
					}
				},
				{
					"sampler":35,
					"target":{
						"node":10,
						"path":"scale"
					}
				},
				{
					"sampler":36,
					"target":{
						"node":15,
						"path":"translation"
					}
				},
				{
					"sampler":37,
					"target":{
						"node":15,
						"path":"rotation"
					}
				},
				{
					"sampler":38,
					"target":{
						"node":15,
						"path":"scale"
					}
				},
				{
					"sampler":39,
					"target":{
						"node":14,
						"path":"translation"
					}
				},
				{
					"sampler":40,
					"target":{
						"node":14,
						"path":"rotation"
					}
				},
				{
					"sampler":41,
					"target":{
						"node":14,
						"path":"scale"
					}
				},
				{
					"sampler":42,
					"target":{
						"node":13,
						"path":"translation"
					}
				},
				{
					"sampler":43,
					"target":{
						"node":13,
						"path":"rotation"
					}
				},
				{
					"sampler":44,
					"target":{
						"node":13,
						"path":"scale"
					}
				},
				{
					"sampler":45,
					"target":{
						"node":12,
						"path":"translation"
					}
				},
				{
					"sampler":46,
					"target":{
						"node":12,
						"path":"rotation"
					}
				},
				{
					"sampler":47,
					"target":{
						"node":12,
						"path":"scale"
					}
				},
				{
					"sampler":48,
					"target":{
						"node":19,
						"path":"translation"
					}
				},
				{
					"sampler":49,
					"target":{
						"node":19,
						"path":"rotation"
					}
				},
				{
					"sampler":50,
					"target":{
						"node":19,
						"path":"scale"
					}
				},
				{
					"sampler":51,
					"target":{
						"node":18,
						"path":"translation"
					}
				},
				{
					"sampler":52,
					"target":{
						"node":18,
						"path":"rotation"
					}
				},
				{
					"sampler":53,
					"target":{
						"node":18,
						"path":"scale"
					}
				},
				{
					"sampler":54,
					"target":{
						"node":17,
						"path":"translation"
					}
				},
				{
					"sampler":55,
					"target":{
						"node":17,
						"path":"rotation"
					}
				},
				{
					"sampler":56,
					"target":{
						"node":17,
						"path":"scale"
					}
				},
				{
					"sampler":57,
					"target":{
						"node":16,
						"path":"translation"
					}
				},
				{
					"sampler":58,
					"target":{
						"node":16,
						"path":"rotation"
					}
				},
				{
					"sampler":59,
					"target":{
						"node":16,
						"path":"scale"
					}
				}
			],
			"name":"idle",
			"samplers":[
				{
					"input":87,
					"interpolation":"STEP",
					"output":129
				},
				{
					"input":85,
					"interpolation":"LINEAR",
					"output":130
				},
				{
					"input":87,
					"interpolation":"STEP",
					"output":89
				},
				{
					"input":87,
					"interpolation":"STEP",
					"output":90
				},
				{
					"input":87,
					"interpolation":"STEP",
					"output":88
				},
				{
					"input":87,
					"interpolation":"STEP",
					"output":89
				},
				{
					"input":87,
					"interpolation":"STEP",
					"output":90
				},
				{
					"input":85,
					"interpolation":"LINEAR",
					"output":131
				},
				{
					"input":87,
					"interpolation":"STEP",
					"output":89
				},
				{
					"input":87,
					"interpolation":"STEP",
					"output":92
				},
				{
					"input":85,
					"interpolation":"LINEAR",
					"output":132
				},
				{
					"input":87,
					"interpolation":"STEP",
					"output":89
				},
				{
					"input":87,
					"interpolation":"STEP",
					"output":94
				},
				{
					"input":85,
					"interpolation":"LINEAR",
					"output":133
				},
				{
					"input":87,
					"interpolation":"STEP",
					"output":89
				},
				{
					"input":87,
					"interpolation":"STEP",
					"output":96
				},
				{
					"input":87,
					"interpolation":"STEP",
					"output":134
				},
				{
					"input":87,
					"interpolation":"STEP",
					"output":98
				},
				{
					"input":87,
					"interpolation":"STEP",
					"output":99
				},
				{
					"input":85,
					"interpolation":"LINEAR",
					"output":135
				},
				{
					"input":87,
					"interpolation":"STEP",
					"output":101
				},
				{
					"input":87,
					"interpolation":"STEP",
					"output":102
				},
				{
					"input":85,
					"interpolation":"LINEAR",
					"output":136
				},
				{
					"input":87,
					"interpolation":"STEP",
					"output":89
				},
				{
					"input":87,
					"interpolation":"STEP",
					"output":104
				},
				{
					"input":85,
					"interpolation":"LINEAR",
					"output":137
				},
				{
					"input":87,
					"interpolation":"STEP",
					"output":89
				},
				{
					"input":87,
					"interpolation":"STEP",
					"output":106
				},
				{
					"input":85,
					"interpolation":"LINEAR",
					"output":138
				},
				{
					"input":87,
					"interpolation":"STEP",
					"output":108
				},
				{
					"input":87,
					"interpolation":"STEP",
					"output":139
				},
				{
					"input":87,
					"interpolation":"STEP",
					"output":88
				},
				{
					"input":87,
					"interpolation":"STEP",
					"output":89
				},
				{
					"input":87,
					"interpolation":"STEP",
					"output":111
				},
				{
					"input":87,
					"interpolation":"STEP",
					"output":112
				},
				{
					"input":87,
					"interpolation":"STEP",
					"output":89
				},
				{
					"input":87,
					"interpolation":"STEP",
					"output":140
				},
				{
					"input":87,
					"interpolation":"STEP",
					"output":114
				},
				{
					"input":87,
					"interpolation":"STEP",
					"output":89
				},
				{
					"input":87,
					"interpolation":"STEP",
					"output":115
				},
				{
					"input":87,
					"interpolation":"STEP",
					"output":141
				},
				{
					"input":87,
					"interpolation":"STEP",
					"output":89
				},
				{
					"input":87,
					"interpolation":"STEP",
					"output":117
				},
				{
					"input":85,
					"interpolation":"LINEAR",
					"output":142
				},
				{
					"input":87,
					"interpolation":"STEP",
					"output":89
				},
				{
					"input":87,
					"interpolation":"STEP",
					"output":119
				},
				{
					"input":85,
					"interpolation":"LINEAR",
					"output":143
				},
				{
					"input":87,
					"interpolation":"STEP",
					"output":89
				},
				{
					"input":87,
					"interpolation":"STEP",
					"output":144
				},
				{
					"input":87,
					"interpolation":"STEP",
					"output":122
				},
				{
					"input":87,
					"interpolation":"STEP",
					"output":89
				},
				{
					"input":87,
					"interpolation":"STEP",
					"output":123
				},
				{
					"input":85,
					"interpolation":"LINEAR",
					"output":145
				},
				{
					"input":87,
					"interpolation":"STEP",
					"output":89
				},
				{
					"input":87,
					"interpolation":"STEP",
					"output":125
				},
				{
					"input":85,
					"interpolation":"LINEAR",
					"output":146
				},
				{
					"input":87,
					"interpolation":"STEP",
					"output":89
				},
				{
					"input":87,
					"interpolation":"STEP",
					"output":127
				},
				{
					"input":85,
					"interpolation":"LINEAR",
					"output":147
				},
				{
					"input":87,
					"interpolation":"STEP",
					"output":89
				}
			]
		},
		{
			"channels":[
				{
					"sampler":0,
					"target":{
						"node":11,
						"path":"translation"
					}
				},
				{
					"sampler":1,
					"target":{
						"node":11,
						"path":"rotation"
					}
				},
				{
					"sampler":2,
					"target":{
						"node":11,
						"path":"scale"
					}
				},
				{
					"sampler":3,
					"target":{
						"node":9,
						"path":"translation"
					}
				},
				{
					"sampler":4,
					"target":{
						"node":9,
						"path":"rotation"
					}
				},
				{
					"sampler":5,
					"target":{
						"node":9,
						"path":"scale"
					}
				},
				{
					"sampler":6,
					"target":{
						"node":1,
						"path":"translation"
					}
				},
				{
					"sampler":7,
					"target":{
						"node":1,
						"path":"rotation"
					}
				},
				{
					"sampler":8,
					"target":{
						"node":1,
						"path":"scale"
					}
				},
				{
					"sampler":9,
					"target":{
						"node":0,
						"path":"translation"
					}
				},
				{
					"sampler":10,
					"target":{
						"node":0,
						"path":"rotation"
					}
				},
				{
					"sampler":11,
					"target":{
						"node":0,
						"path":"scale"
					}
				},
				{
					"sampler":12,
					"target":{
						"node":4,
						"path":"translation"
					}
				},
				{
					"sampler":13,
					"target":{
						"node":4,
						"path":"rotation"
					}
				},
				{
					"sampler":14,
					"target":{
						"node":4,
						"path":"scale"
					}
				},
				{
					"sampler":15,
					"target":{
						"node":3,
						"path":"translation"
					}
				},
				{
					"sampler":16,
					"target":{
						"node":3,
						"path":"rotation"
					}
				},
				{
					"sampler":17,
					"target":{
						"node":3,
						"path":"scale"
					}
				},
				{
					"sampler":18,
					"target":{
						"node":2,
						"path":"translation"
					}
				},
				{
					"sampler":19,
					"target":{
						"node":2,
						"path":"rotation"
					}
				},
				{
					"sampler":20,
					"target":{
						"node":2,
						"path":"scale"
					}
				},
				{
					"sampler":21,
					"target":{
						"node":7,
						"path":"translation"
					}
				},
				{
					"sampler":22,
					"target":{
						"node":7,
						"path":"rotation"
					}
				},
				{
					"sampler":23,
					"target":{
						"node":7,
						"path":"scale"
					}
				},
				{
					"sampler":24,
					"target":{
						"node":6,
						"path":"translation"
					}
				},
				{
					"sampler":25,
					"target":{
						"node":6,
						"path":"rotation"
					}
				},
				{
					"sampler":26,
					"target":{
						"node":6,
						"path":"scale"
					}
				},
				{
					"sampler":27,
					"target":{
						"node":5,
						"path":"translation"
					}
				},
				{
					"sampler":28,
					"target":{
						"node":5,
						"path":"rotation"
					}
				},
				{
					"sampler":29,
					"target":{
						"node":5,
						"path":"scale"
					}
				},
				{
					"sampler":30,
					"target":{
						"node":8,
						"path":"translation"
					}
				},
				{
					"sampler":31,
					"target":{
						"node":8,
						"path":"rotation"
					}
				},
				{
					"sampler":32,
					"target":{
						"node":8,
						"path":"scale"
					}
				},
				{
					"sampler":33,
					"target":{
						"node":10,
						"path":"translation"
					}
				},
				{
					"sampler":34,
					"target":{
						"node":10,
						"path":"rotation"
					}
				},
				{
					"sampler":35,
					"target":{
						"node":10,
						"path":"scale"
					}
				},
				{
					"sampler":36,
					"target":{
						"node":15,
						"path":"translation"
					}
				},
				{
					"sampler":37,
					"target":{
						"node":15,
						"path":"rotation"
					}
				},
				{
					"sampler":38,
					"target":{
						"node":15,
						"path":"scale"
					}
				},
				{
					"sampler":39,
					"target":{
						"node":14,
						"path":"translation"
					}
				},
				{
					"sampler":40,
					"target":{
						"node":14,
						"path":"rotation"
					}
				},
				{
					"sampler":41,
					"target":{
						"node":14,
						"path":"scale"
					}
				},
				{
					"sampler":42,
					"target":{
						"node":13,
						"path":"translation"
					}
				},
				{
					"sampler":43,
					"target":{
						"node":13,
						"path":"rotation"
					}
				},
				{
					"sampler":44,
					"target":{
						"node":13,
						"path":"scale"
					}
				},
				{
					"sampler":45,
					"target":{
						"node":12,
						"path":"translation"
					}
				},
				{
					"sampler":46,
					"target":{
						"node":12,
						"path":"rotation"
					}
				},
				{
					"sampler":47,
					"target":{
						"node":12,
						"path":"scale"
					}
				},
				{
					"sampler":48,
					"target":{
						"node":19,
						"path":"translation"
					}
				},
				{
					"sampler":49,
					"target":{
						"node":19,
						"path":"rotation"
					}
				},
				{
					"sampler":50,
					"target":{
						"node":19,
						"path":"scale"
					}
				},
				{
					"sampler":51,
					"target":{
						"node":18,
						"path":"translation"
					}
				},
				{
					"sampler":52,
					"target":{
						"node":18,
						"path":"rotation"
					}
				},
				{
					"sampler":53,
					"target":{
						"node":18,
						"path":"scale"
					}
				},
				{
					"sampler":54,
					"target":{
						"node":17,
						"path":"translation"
					}
				},
				{
					"sampler":55,
					"target":{
						"node":17,
						"path":"rotation"
					}
				},
				{
					"sampler":56,
					"target":{
						"node":17,
						"path":"scale"
					}
				},
				{
					"sampler":57,
					"target":{
						"node":16,
						"path":"translation"
					}
				},
				{
					"sampler":58,
					"target":{
						"node":16,
						"path":"rotation"
					}
				},
				{
					"sampler":59,
					"target":{
						"node":16,
						"path":"scale"
					}
				}
			],
			"name":"walk",
			"samplers":[
				{
					"input":85,
					"interpolation":"LINEAR",
					"output":148
				},
				{
					"input":85,
					"interpolation":"LINEAR",
					"output":149
				},
				{
					"input":87,
					"interpolation":"STEP",
					"output":89
				},
				{
					"input":87,
					"interpolation":"STEP",
					"output":150
				},
				{
					"input":85,
					"interpolation":"LINEAR",
					"output":151
				},
				{
					"input":87,
					"interpolation":"STEP",
					"output":89
				},
				{
					"input":87,
					"interpolation":"STEP",
					"output":152
				},
				{
					"input":85,
					"interpolation":"LINEAR",
					"output":153
				},
				{
					"input":87,
					"interpolation":"STEP",
					"output":154
				},
				{
					"input":87,
					"interpolation":"STEP",
					"output":155
				},
				{
					"input":85,
					"interpolation":"LINEAR",
					"output":156
				},
				{
					"input":87,
					"interpolation":"STEP",
					"output":89
				},
				{
					"input":87,
					"interpolation":"STEP",
					"output":157
				},
				{
					"input":85,
					"interpolation":"LINEAR",
					"output":158
				},
				{
					"input":87,
					"interpolation":"STEP",
					"output":159
				},
				{
					"input":87,
					"interpolation":"STEP",
					"output":160
				},
				{
					"input":85,
					"interpolation":"LINEAR",
					"output":161
				},
				{
					"input":87,
					"interpolation":"STEP",
					"output":162
				},
				{
					"input":87,
					"interpolation":"STEP",
					"output":163
				},
				{
					"input":85,
					"interpolation":"LINEAR",
					"output":164
				},
				{
					"input":87,
					"interpolation":"STEP",
					"output":165
				},
				{
					"input":87,
					"interpolation":"STEP",
					"output":166
				},
				{
					"input":85,
					"interpolation":"LINEAR",
					"output":167
				},
				{
					"input":87,
					"interpolation":"STEP",
					"output":168
				},
				{
					"input":87,
					"interpolation":"STEP",
					"output":169
				},
				{
					"input":85,
					"interpolation":"LINEAR",
					"output":170
				},
				{
					"input":87,
					"interpolation":"STEP",
					"output":171
				},
				{
					"input":87,
					"interpolation":"STEP",
					"output":172
				},
				{
					"input":85,
					"interpolation":"LINEAR",
					"output":173
				},
				{
					"input":87,
					"interpolation":"STEP",
					"output":174
				},
				{
					"input":85,
					"interpolation":"LINEAR",
					"output":175
				},
				{
					"input":85,
					"interpolation":"LINEAR",
					"output":176
				},
				{
					"input":87,
					"interpolation":"STEP",
					"output":154
				},
				{
					"input":87,
					"interpolation":"STEP",
					"output":177
				},
				{
					"input":87,
					"interpolation":"STEP",
					"output":112
				},
				{
					"input":87,
					"interpolation":"STEP",
					"output":89
				},
				{
					"input":85,
					"interpolation":"LINEAR",
					"output":178
				},
				{
					"input":85,
					"interpolation":"LINEAR",
					"output":179
				},
				{
					"input":87,
					"interpolation":"STEP",
					"output":89
				},
				{
					"input":87,
					"interpolation":"STEP",
					"output":180
				},
				{
					"input":85,
					"interpolation":"LINEAR",
					"output":181
				},
				{
					"input":87,
					"interpolation":"STEP",
					"output":182
				},
				{
					"input":87,
					"interpolation":"STEP",
					"output":183
				},
				{
					"input":85,
					"interpolation":"LINEAR",
					"output":184
				},
				{
					"input":87,
					"interpolation":"STEP",
					"output":185
				},
				{
					"input":87,
					"interpolation":"STEP",
					"output":186
				},
				{
					"input":85,
					"interpolation":"LINEAR",
					"output":187
				},
				{
					"input":87,
					"interpolation":"STEP",
					"output":89
				},
				{
					"input":85,
					"interpolation":"LINEAR",
					"output":188
				},
				{
					"input":85,
					"interpolation":"LINEAR",
					"output":189
				},
				{
					"input":87,
					"interpolation":"STEP",
					"output":89
				},
				{
					"input":87,
					"interpolation":"STEP",
					"output":190
				},
				{
					"input":85,
					"interpolation":"LINEAR",
					"output":191
				},
				{
					"input":87,
					"interpolation":"STEP",
					"output":192
				},
				{
					"input":87,
					"interpolation":"STEP",
					"output":193
				},
				{
					"input":85,
					"interpolation":"LINEAR",
					"output":194
				},
				{
					"input":87,
					"interpolation":"STEP",
					"output":154
				},
				{
					"input":87,
					"interpolation":"STEP",
					"output":195
				},
				{
					"input":85,
					"interpolation":"LINEAR",
					"output":196
				},
				{
					"input":87,
					"interpolation":"STEP",
					"output":185
				}
			]
		}
	],
	"materials":[
		{
			"doubleSided":true,
			"name":"ropa",
			"pbrMetallicRoughness":{
				"baseColorFactor":[
					0.0715070441365242,
					0.0017060661921277642,
					0.07078656554222107,
					1
				],
				"metallicFactor":0
			}
		},
		{
			"doubleSided":true,
			"name":"tela.002",
			"pbrMetallicRoughness":{
				"baseColorFactor":[
					0.07227186858654022,
					0.0018211620626971126,
					0.07036012411117554,
					1
				],
				"metallicFactor":0,
				"roughnessFactor":0.6686747074127197
			}
		},
		{
			"doubleSided":true,
			"name":"piel.002",
			"pbrMetallicRoughness":{
				"baseColorFactor":[
					0.8000074625015259,
					0.5002403855323792,
					0.18732641637325287,
					1
				],
				"metallicFactor":0,
				"roughnessFactor":0.5
			}
		},
		{
			"doubleSided":true,
			"name":"cuero",
			"pbrMetallicRoughness":{
				"baseColorFactor":[
					0.04518623277544975,
					0.003676507854834199,
					0,
					1
				],
				"metallicFactor":0
			}
		},
		{
			"doubleSided":true,
			"name":"prieto",
			"pbrMetallicRoughness":{
				"baseColorFactor":[
					0,
					0,
					0,
					1
				],
				"metallicFactor":0,
				"roughnessFactor":0.5
			}
		},
		{
			"doubleSided":true,
			"name":"azul",
			"pbrMetallicRoughness":{
				"baseColorFactor":[
					0.05981970578432083,
					0.7076832056045532,
					0.8000074625015259,
					1
				],
				"metallicFactor":0,
				"roughnessFactor":0.5
			}
		},
		{
			"doubleSided":true,
			"name":"tela",
			"pbrMetallicRoughness":{
				"baseColorFactor":[
					0.07227186858654022,
					0.0018211620626971126,
					0.07036012411117554,
					1
				],
				"metallicFactor":0,
				"roughnessFactor":0.740963876247406
			}
		},
		{
			"doubleSided":true,
			"name":"gema",
			"pbrMetallicRoughness":{
				"baseColorFactor":[
					0,
					0.2955494821071625,
					0.8000074625015259,
					1
				],
				"roughnessFactor":0.5
			}
		},
		{
			"doubleSided":true,
			"name":"tela.001",
			"pbrMetallicRoughness":{
				"baseColorFactor":[
					0.07227186858654022,
					0.0018211620626971126,
					0.07036012411117554,
					1
				],
				"metallicFactor":0,
				"roughnessFactor":0.6325300931930542
			}
		},
		{
			"doubleSided":true,
			"name":"cuero2",
			"pbrMetallicRoughness":{
				"baseColorFactor":[
					0.04518623277544975,
					0.003676507854834199,
					0,
					1
				],
				"metallicFactor":0
			}
		},
		{
			"doubleSided":true,
			"name":"palo.001",
			"pbrMetallicRoughness":{
				"baseColorFactor":[
					0.12730154395103455,
					0.02357993647456169,
					0.003860905533656478,
					1
				],
				"metallicFactor":0
			}
		}
	],
	"meshes":[
		{
			"name":"Cube.001",
			"primitives":[
				{
					"attributes":{
						"POSITION":0,
						"NORMAL":1,
						"TEXCOORD_0":2,
						"JOINTS_0":3,
						"WEIGHTS_0":4
					},
					"indices":5,
					"material":0
				}
			]
		},
		{
			"name":"Cube.006",
			"primitives":[
				{
					"attributes":{
						"POSITION":7,
						"NORMAL":8,
						"TEXCOORD_0":9,
						"JOINTS_0":10,
						"WEIGHTS_0":11
					},
					"indices":12,
					"material":1
				},
				{
					"attributes":{
						"POSITION":13,
						"NORMAL":14,
						"TEXCOORD_0":15,
						"JOINTS_0":16,
						"WEIGHTS_0":17
					},
					"indices":18,
					"material":2
				},
				{
					"attributes":{
						"POSITION":19,
						"NORMAL":20,
						"TEXCOORD_0":21,
						"JOINTS_0":22,
						"WEIGHTS_0":23
					},
					"indices":24,
					"material":3
				},
				{
					"attributes":{
						"POSITION":25,
						"NORMAL":26,
						"TEXCOORD_0":27,
						"JOINTS_0":28,
						"WEIGHTS_0":29
					},
					"indices":30,
					"material":4
				},
				{
					"attributes":{
						"POSITION":31,
						"NORMAL":32,
						"TEXCOORD_0":33,
						"JOINTS_0":34,
						"WEIGHTS_0":35
					},
					"indices":36,
					"material":5
				}
			]
		},
		{
			"name":"Cube.007",
			"primitives":[
				{
					"attributes":{
						"POSITION":37,
						"NORMAL":38,
						"TEXCOORD_0":39,
						"JOINTS_0":40,
						"WEIGHTS_0":41
					},
					"indices":42,
					"material":6
				},
				{
					"attributes":{
						"POSITION":43,
						"NORMAL":44,
						"TEXCOORD_0":45,
						"JOINTS_0":46,
						"WEIGHTS_0":47
					},
					"indices":48,
					"material":2
				}
			]
		},
		{
			"name":"Cube.003",
			"primitives":[
				{
					"attributes":{
						"POSITION":49,
						"NORMAL":50,
						"TEXCOORD_0":51,
						"JOINTS_0":52,
						"WEIGHTS_0":53
					},
					"indices":54,
					"material":3
				}
			]
		},
		{
			"name":"Cube.009",
			"primitives":[
				{
					"attributes":{
						"POSITION":55,
						"NORMAL":56,
						"TEXCOORD_0":57,
						"JOINTS_0":58,
						"WEIGHTS_0":59
					},
					"indices":60,
					"material":7
				}
			]
		},
		{
			"name":"Cube.004",
			"primitives":[
				{
					"attributes":{
						"POSITION":61,
						"NORMAL":62,
						"TEXCOORD_0":63,
						"JOINTS_0":64,
						"WEIGHTS_0":65
					},
					"indices":66,
					"material":8
				},
				{
					"attributes":{
						"POSITION":67,
						"NORMAL":68,
						"TEXCOORD_0":69,
						"JOINTS_0":70,
						"WEIGHTS_0":71
					},
					"indices":72,
					"material":2
				}
			]
		},
		{
			"name":"Cube.002",
			"primitives":[
				{
					"attributes":{
						"POSITION":73,
						"NORMAL":74,
						"TEXCOORD_0":75,
						"JOINTS_0":76,
						"WEIGHTS_0":77
					},
					"indices":78,
					"material":9
				}
			]
		},
		{
			"name":"Cube.008",
			"primitives":[
				{
					"attributes":{
						"POSITION":79,
						"NORMAL":80,
						"TEXCOORD_0":81,
						"JOINTS_0":82,
						"WEIGHTS_0":83
					},
					"indices":84,
					"material":10
				}
			]
		}
	],
	"skins":[
		{
			"inverseBindMatrices":6,
			"joints":[
				11,
				9,
				1,
				0,
				4,
				3,
				2,
				7,
				6,
				5,
				8,
				10,
				15,
				14,
				13,
				12,
				19,
				18,
				17,
				16
			],
			"name":"Armature"
		}
	],
	"accessors":[
		{
			"bufferView":0,
			"componentType":5126,
			"count":202,
			"max":[
				1.4761404991149902,
				4.929017066955566,
				1.3377093076705933
			],
			"min":[
				-1.6313798427581787,
				0.2581348419189453,
				-1.3358714580535889
			],
			"type":"VEC3"
		},
		{
			"bufferView":1,
			"componentType":5126,
			"count":202,
			"type":"VEC3"
		},
		{
			"bufferView":2,
			"componentType":5126,
			"count":202,
			"type":"VEC2"
		},
		{
			"bufferView":3,
			"componentType":5121,
			"count":202,
			"type":"VEC4"
		},
		{
			"bufferView":4,
			"componentType":5126,
			"count":202,
			"type":"VEC4"
		},
		{
			"bufferView":5,
			"componentType":5123,
			"count":312,
			"type":"SCALAR"
		},
		{
			"bufferView":6,
			"componentType":5126,
			"count":20,
			"type":"MAT4"
		},
		{
			"bufferView":7,
			"componentType":5126,
			"count":283,
			"max":[
				1.2596442699432373,
				7.001575469970703,
				1.4893734455108643
			],
			"min":[
				-1.3159828186035156,
				3.7882251739501953,
				-0.9763489365577698
			],
			"type":"VEC3"
		},
		{
			"bufferView":8,
			"componentType":5126,
			"count":283,
			"type":"VEC3"
		},
		{
			"bufferView":9,
			"componentType":5126,
			"count":283,
			"type":"VEC2"
		},
		{
			"bufferView":10,
			"componentType":5121,
			"count":283,
			"type":"VEC4"
		},
		{
			"bufferView":11,
			"componentType":5126,
			"count":283,
			"type":"VEC4"
		},
		{
			"bufferView":12,
			"componentType":5123,
			"count":465,
			"type":"SCALAR"
		},
		{
			"bufferView":13,
			"componentType":5126,
			"count":237,
			"max":[
				0.9718307256698608,
				5.950736045837402,
				1.0611811876296997
			],
			"min":[
				-0.9524730443954468,
				4.359419822692871,
				0.5545822381973267
			],
			"type":"VEC3"
		},
		{
			"bufferView":14,
			"componentType":5126,
			"count":237,
			"type":"VEC3"
		},
		{
			"bufferView":15,
			"componentType":5126,
			"count":237,
			"type":"VEC2"
		},
		{
			"bufferView":16,
			"componentType":5121,
			"count":237,
			"type":"VEC4"
		},
		{
			"bufferView":17,
			"componentType":5126,
			"count":237,
			"type":"VEC4"
		},
		{
			"bufferView":18,
			"componentType":5123,
			"count":759,
			"type":"SCALAR"
		},
		{
			"bufferView":19,
			"componentType":5126,
			"count":230,
			"max":[
				0.9718307256698608,
				6.359419822692871,
				1.000076413154602
			],
			"min":[
				-1.0281692743301392,
				4.859419822692871,
				0.20000001788139343
			],
			"type":"VEC3"
		},
		{
			"bufferView":20,
			"componentType":5126,
			"count":230,
			"type":"VEC3"
		},
		{
			"bufferView":21,
			"componentType":5126,
			"count":230,
			"type":"VEC2"
		},
		{
			"bufferView":22,
			"componentType":5121,
			"count":230,
			"type":"VEC4"
		},
		{
			"bufferView":23,
			"componentType":5126,
			"count":230,
			"type":"VEC4"
		},
		{
			"bufferView":24,
			"componentType":5123,
			"count":708,
			"type":"SCALAR"
		},
		{
			"bufferView":25,
			"componentType":5126,
			"count":53,
			"max":[
				0.47976168990135193,
				5.228016376495361,
				1.0611811876296997
			],
			"min":[
				-0.5361002683639526,
				4.570998668670654,
				0.960289478302002
			],
			"type":"VEC3"
		},
		{
			"bufferView":26,
			"componentType":5126,
			"count":53,
			"type":"VEC3"
		},
		{
			"bufferView":27,
			"componentType":5126,
			"count":53,
			"type":"VEC2"
		},
		{
			"bufferView":28,
			"componentType":5121,
			"count":53,
			"type":"VEC4"
		},
		{
			"bufferView":29,
			"componentType":5126,
			"count":53,
			"type":"VEC4"
		},
		{
			"bufferView":30,
			"componentType":5123,
			"count":132,
			"type":"SCALAR"
		},
		{
			"bufferView":31,
			"componentType":5126,
			"count":8,
			"max":[
				0.3951065242290497,
				5.184215068817139,
				0.9735518097877502
			],
			"min":[
				-0.4514451324939728,
				5.140414237976074,
				0.9669206142425537
			],
			"type":"VEC3"
		},
		{
			"bufferView":32,
			"componentType":5126,
			"count":8,
			"type":"VEC3"
		},
		{
			"bufferView":33,
			"componentType":5126,
			"count":8,
			"type":"VEC2"
		},
		{
			"bufferView":34,
			"componentType":5121,
			"count":8,
			"type":"VEC4"
		},
		{
			"bufferView":35,
			"componentType":5126,
			"count":8,
			"type":"VEC4"
		},
		{
			"bufferView":36,
			"componentType":5123,
			"count":12,
			"type":"SCALAR"
		},
		{
			"bufferView":37,
			"componentType":5126,
			"count":76,
			"max":[
				3.5707221031188965,
				4.276377201080322,
				0.5371472835540771
			],
			"min":[
				0.48524975776672363,
				3.2020821571350098,
				-0.5371479988098145
			],
			"type":"VEC3"
		},
		{
			"bufferView":38,
			"componentType":5126,
			"count":76,
			"type":"VEC3"
		},
		{
			"bufferView":39,
			"componentType":5126,
			"count":76,
			"type":"VEC2"
		},
		{
			"bufferView":40,
			"componentType":5121,
			"count":76,
			"type":"VEC4"
		},
		{
			"bufferView":41,
			"componentType":5126,
			"count":76,
			"type":"VEC4"
		},
		{
			"bufferView":42,
			"componentType":5123,
			"count":126,
			"type":"SCALAR"
		},
		{
			"bufferView":43,
			"componentType":5126,
			"count":36,
			"max":[
				3.9805634021759033,
				4.057318687438965,
				0.3180884122848511
			],
			"min":[
				2.5728604793548584,
				3.421140670776367,
				-0.3180893659591675
			],
			"type":"VEC3"
		},
		{
			"bufferView":44,
			"componentType":5126,
			"count":36,
			"type":"VEC3"
		},
		{
			"bufferView":45,
			"componentType":5126,
			"count":36,
			"type":"VEC2"
		},
		{
			"bufferView":46,
			"componentType":5121,
			"count":36,
			"type":"VEC4"
		},
		{
			"bufferView":47,
			"componentType":5126,
			"count":36,
			"type":"VEC4"
		},
		{
			"bufferView":48,
			"componentType":5123,
			"count":54,
			"type":"SCALAR"
		},
		{
			"bufferView":49,
			"componentType":5126,
			"count":84,
			"max":[
				0.9158209562301636,
				1.7343239784240723,
				0.8778527975082397
			],
			"min":[
				-0.04154375195503235,
				0.001713395118713379,
				-0.3313843905925751
			],
			"type":"VEC3"
		},
		{
			"bufferView":50,
			"componentType":5126,
			"count":84,
			"type":"VEC3"
		},
		{
			"bufferView":51,
			"componentType":5126,
			"count":84,
			"type":"VEC2"
		},
		{
			"bufferView":52,
			"componentType":5121,
			"count":84,
			"type":"VEC4"
		},
		{
			"bufferView":53,
			"componentType":5126,
			"count":84,
			"type":"VEC4"
		},
		{
			"bufferView":54,
			"componentType":5123,
			"count":168,
			"type":"SCALAR"
		},
		{
			"bufferView":55,
			"componentType":5126,
			"count":56,
			"max":[
				4.2956156730651855,
				6.588940620422363,
				0.5105270743370056
			],
			"min":[
				3.274561643600464,
				5.108760833740234,
				-0.5105270743370056
			],
			"type":"VEC3"
		},
		{
			"bufferView":56,
			"componentType":5126,
			"count":56,
			"type":"VEC3"
		},
		{
			"bufferView":57,
			"componentType":5126,
			"count":56,
			"type":"VEC2"
		},
		{
			"bufferView":58,
			"componentType":5121,
			"count":56,
			"type":"VEC4"
		},
		{
			"bufferView":59,
			"componentType":5126,
			"count":56,
			"type":"VEC4"
		},
		{
			"bufferView":60,
			"componentType":5123,
			"count":84,
			"type":"SCALAR"
		},
		{
			"bufferView":61,
			"componentType":5126,
			"count":76,
			"max":[
				-0.4283849000930786,
				4.276377201080322,
				0.5371476411819458
			],
			"min":[
				-3.513856887817383,
				3.2020821571350098,
				-0.5371476411819458
			],
			"type":"VEC3"
		},
		{
			"bufferView":62,
			"componentType":5126,
			"count":76,
			"type":"VEC3"
		},
		{
			"bufferView":63,
			"componentType":5126,
			"count":76,
			"type":"VEC2"
		},
		{
			"bufferView":64,
			"componentType":5121,
			"count":76,
			"type":"VEC4"
		},
		{
			"bufferView":65,
			"componentType":5126,
			"count":76,
			"type":"VEC4"
		},
		{
			"bufferView":66,
			"componentType":5123,
			"count":126,
			"type":"SCALAR"
		},
		{
			"bufferView":67,
			"componentType":5126,
			"count":36,
			"max":[
				-2.515995502471924,
				4.057318687438965,
				0.3180888891220093
			],
			"min":[
				-3.9236984252929688,
				3.421140670776367,
				-0.3180888891220093
			],
			"type":"VEC3"
		},
		{
			"bufferView":68,
			"componentType":5126,
			"count":36,
			"type":"VEC3"
		},
		{
			"bufferView":69,
			"componentType":5126,
			"count":36,
			"type":"VEC2"
		},
		{
			"bufferView":70,
			"componentType":5121,
			"count":36,
			"type":"VEC4"
		},
		{
			"bufferView":71,
			"componentType":5126,
			"count":36,
			"type":"VEC4"
		},
		{
			"bufferView":72,
			"componentType":5123,
			"count":54,
			"type":"SCALAR"
		},
		{
			"bufferView":73,
			"componentType":5126,
			"count":84,
			"max":[
				0.25135600566864014,
				1.7343239784240723,
				0.8778527975082397
			],
			"min":[
				-0.8355379104614258,
				0.001713395118713379,
				-0.4012138545513153
			],
			"type":"VEC3"
		},
		{
			"bufferView":74,
			"componentType":5126,
			"count":84,
			"type":"VEC3"
		},
		{
			"bufferView":75,
			"componentType":5126,
			"count":84,
			"type":"VEC2"
		},
		{
			"bufferView":76,
			"componentType":5121,
			"count":84,
			"type":"VEC4"
		},
		{
			"bufferView":77,
			"componentType":5126,
			"count":84,
			"type":"VEC4"
		},
		{
			"bufferView":78,
			"componentType":5123,
			"count":168,
			"type":"SCALAR"
		},
		{
			"bufferView":79,
			"componentType":5126,
			"count":136,
			"max":[
				4.386724472045898,
				5.919325828552246,
				0.616553783416748
			],
			"min":[
				3.1536166667938232,
				-0.18198823928833008,
				-0.616553783416748
			],
			"type":"VEC3"
		},
		{
			"bufferView":80,
			"componentType":5126,
			"count":136,
			"type":"VEC3"
		},
		{
			"bufferView":81,
			"componentType":5126,
			"count":136,
			"type":"VEC2"
		},
		{
			"bufferView":82,
			"componentType":5121,
			"count":136,
			"type":"VEC4"
		},
		{
			"bufferView":83,
			"componentType":5126,
			"count":136,
			"type":"VEC4"
		},
		{
			"bufferView":84,
			"componentType":5123,
			"count":204,
			"type":"SCALAR"
		},
		{
			"bufferView":85,
			"componentType":5126,
			"count":33,
			"max":[
				1.3333333333333333
			],
			"min":[
				0
			],
			"type":"SCALAR"
		},
		{
			"bufferView":86,
			"componentType":5126,
			"count":33,
			"type":"VEC3"
		},
		{
			"bufferView":87,
			"componentType":5126,
			"count":2,
			"max":[
				1.3333333333333333
			],
			"min":[
				0
			],
			"type":"SCALAR"
		},
		{
			"bufferView":88,
			"componentType":5126,
			"count":2,
			"type":"VEC4"
		},
		{
			"bufferView":89,
			"componentType":5126,
			"count":2,
			"type":"VEC3"
		},
		{
			"bufferView":90,
			"componentType":5126,
			"count":2,
			"type":"VEC3"
		},
		{
			"bufferView":91,
			"componentType":5126,
			"count":33,
			"type":"VEC4"
		},
		{
			"bufferView":92,
			"componentType":5126,
			"count":2,
			"type":"VEC3"
		},
		{
			"bufferView":93,
			"componentType":5126,
			"count":33,
			"type":"VEC4"
		},
		{
			"bufferView":94,
			"componentType":5126,
			"count":2,
			"type":"VEC3"
		},
		{
			"bufferView":95,
			"componentType":5126,
			"count":33,
			"type":"VEC4"
		},
		{
			"bufferView":96,
			"componentType":5126,
			"count":2,
			"type":"VEC3"
		},
		{
			"bufferView":97,
			"componentType":5126,
			"count":33,
			"type":"VEC4"
		},
		{
			"bufferView":98,
			"componentType":5126,
			"count":2,
			"type":"VEC3"
		},
		{
			"bufferView":99,
			"componentType":5126,
			"count":2,
			"type":"VEC3"
		},
		{
			"bufferView":100,
			"componentType":5126,
			"count":33,
			"type":"VEC4"
		},
		{
			"bufferView":101,
			"componentType":5126,
			"count":2,
			"type":"VEC3"
		},
		{
			"bufferView":102,
			"componentType":5126,
			"count":2,
			"type":"VEC3"
		},
		{
			"bufferView":103,
			"componentType":5126,
			"count":33,
			"type":"VEC4"
		},
		{
			"bufferView":104,
			"componentType":5126,
			"count":2,
			"type":"VEC3"
		},
		{
			"bufferView":105,
			"componentType":5126,
			"count":33,
			"type":"VEC4"
		},
		{
			"bufferView":106,
			"componentType":5126,
			"count":2,
			"type":"VEC3"
		},
		{
			"bufferView":107,
			"componentType":5126,
			"count":33,
			"type":"VEC4"
		},
		{
			"bufferView":108,
			"componentType":5126,
			"count":2,
			"type":"VEC3"
		},
		{
			"bufferView":109,
			"componentType":5126,
			"count":33,
			"type":"VEC3"
		},
		{
			"bufferView":110,
			"componentType":5126,
			"count":33,
			"type":"VEC4"
		},
		{
			"bufferView":111,
			"componentType":5126,
			"count":2,
			"type":"VEC3"
		},
		{
			"bufferView":112,
			"componentType":5126,
			"count":2,
			"type":"VEC4"
		},
		{
			"bufferView":113,
			"componentType":5126,
			"count":33,
			"type":"VEC3"
		},
		{
			"bufferView":114,
			"componentType":5126,
			"count":2,
			"type":"VEC4"
		},
		{
			"bufferView":115,
			"componentType":5126,
			"count":2,
			"type":"VEC3"
		},
		{
			"bufferView":116,
			"componentType":5126,
			"count":33,
			"type":"VEC4"
		},
		{
			"bufferView":117,
			"componentType":5126,
			"count":2,
			"type":"VEC3"
		},
		{
			"bufferView":118,
			"componentType":5126,
			"count":33,
			"type":"VEC4"
		},
		{
			"bufferView":119,
			"componentType":5126,
			"count":2,
			"type":"VEC3"
		},
		{
			"bufferView":120,
			"componentType":5126,
			"count":33,
			"type":"VEC4"
		},
		{
			"bufferView":121,
			"componentType":5126,
			"count":33,
			"type":"VEC3"
		},
		{
			"bufferView":122,
			"componentType":5126,
			"count":2,
			"type":"VEC4"
		},
		{
			"bufferView":123,
			"componentType":5126,
			"count":2,
			"type":"VEC3"
		},
		{
			"bufferView":124,
			"componentType":5126,
			"count":33,
			"type":"VEC4"
		},
		{
			"bufferView":125,
			"componentType":5126,
			"count":2,
			"type":"VEC3"
		},
		{
			"bufferView":126,
			"componentType":5126,
			"count":33,
			"type":"VEC4"
		},
		{
			"bufferView":127,
			"componentType":5126,
			"count":2,
			"type":"VEC3"
		},
		{
			"bufferView":128,
			"componentType":5126,
			"count":33,
			"type":"VEC4"
		},
		{
			"bufferView":129,
			"componentType":5126,
			"count":2,
			"type":"VEC3"
		},
		{
			"bufferView":130,
			"componentType":5126,
			"count":33,
			"type":"VEC4"
		},
		{
			"bufferView":131,
			"componentType":5126,
			"count":33,
			"type":"VEC4"
		},
		{
			"bufferView":132,
			"componentType":5126,
			"count":33,
			"type":"VEC4"
		},
		{
			"bufferView":133,
			"componentType":5126,
			"count":33,
			"type":"VEC4"
		},
		{
			"bufferView":134,
			"componentType":5126,
			"count":2,
			"type":"VEC4"
		},
		{
			"bufferView":135,
			"componentType":5126,
			"count":33,
			"type":"VEC4"
		},
		{
			"bufferView":136,
			"componentType":5126,
			"count":33,
			"type":"VEC4"
		},
		{
			"bufferView":137,
			"componentType":5126,
			"count":33,
			"type":"VEC4"
		},
		{
			"bufferView":138,
			"componentType":5126,
			"count":33,
			"type":"VEC4"
		},
		{
			"bufferView":139,
			"componentType":5126,
			"count":2,
			"type":"VEC3"
		},
		{
			"bufferView":140,
			"componentType":5126,
			"count":2,
			"type":"VEC3"
		},
		{
			"bufferView":141,
			"componentType":5126,
			"count":2,
			"type":"VEC4"
		},
		{
			"bufferView":142,
			"componentType":5126,
			"count":33,
			"type":"VEC4"
		},
		{
			"bufferView":143,
			"componentType":5126,
			"count":33,
			"type":"VEC4"
		},
		{
			"bufferView":144,
			"componentType":5126,
			"count":2,
			"type":"VEC3"
		},
		{
			"bufferView":145,
			"componentType":5126,
			"count":33,
			"type":"VEC4"
		},
		{
			"bufferView":146,
			"componentType":5126,
			"count":33,
			"type":"VEC4"
		},
		{
			"bufferView":147,
			"componentType":5126,
			"count":33,
			"type":"VEC4"
		},
		{
			"bufferView":148,
			"componentType":5126,
			"count":33,
			"type":"VEC3"
		},
		{
			"bufferView":149,
			"componentType":5126,
			"count":33,
			"type":"VEC4"
		},
		{
			"bufferView":150,
			"componentType":5126,
			"count":2,
			"type":"VEC3"
		},
		{
			"bufferView":151,
			"componentType":5126,
			"count":33,
			"type":"VEC4"
		},
		{
			"bufferView":152,
			"componentType":5126,
			"count":2,
			"type":"VEC3"
		},
		{
			"bufferView":153,
			"componentType":5126,
			"count":33,
			"type":"VEC4"
		},
		{
			"bufferView":154,
			"componentType":5126,
			"count":2,
			"type":"VEC3"
		},
		{
			"bufferView":155,
			"componentType":5126,
			"count":2,
			"type":"VEC3"
		},
		{
			"bufferView":156,
			"componentType":5126,
			"count":33,
			"type":"VEC4"
		},
		{
			"bufferView":157,
			"componentType":5126,
			"count":2,
			"type":"VEC3"
		},
		{
			"bufferView":158,
			"componentType":5126,
			"count":33,
			"type":"VEC4"
		},
		{
			"bufferView":159,
			"componentType":5126,
			"count":2,
			"type":"VEC3"
		},
		{
			"bufferView":160,
			"componentType":5126,
			"count":2,
			"type":"VEC3"
		},
		{
			"bufferView":161,
			"componentType":5126,
			"count":33,
			"type":"VEC4"
		},
		{
			"bufferView":162,
			"componentType":5126,
			"count":2,
			"type":"VEC3"
		},
		{
			"bufferView":163,
			"componentType":5126,
			"count":2,
			"type":"VEC3"
		},
		{
			"bufferView":164,
			"componentType":5126,
			"count":33,
			"type":"VEC4"
		},
		{
			"bufferView":165,
			"componentType":5126,
			"count":2,
			"type":"VEC3"
		},
		{
			"bufferView":166,
			"componentType":5126,
			"count":2,
			"type":"VEC3"
		},
		{
			"bufferView":167,
			"componentType":5126,
			"count":33,
			"type":"VEC4"
		},
		{
			"bufferView":168,
			"componentType":5126,
			"count":2,
			"type":"VEC3"
		},
		{
			"bufferView":169,
			"componentType":5126,
			"count":2,
			"type":"VEC3"
		},
		{
			"bufferView":170,
			"componentType":5126,
			"count":33,
			"type":"VEC4"
		},
		{
			"bufferView":171,
			"componentType":5126,
			"count":2,
			"type":"VEC3"
		},
		{
			"bufferView":172,
			"componentType":5126,
			"count":2,
			"type":"VEC3"
		},
		{
			"bufferView":173,
			"componentType":5126,
			"count":33,
			"type":"VEC4"
		},
		{
			"bufferView":174,
			"componentType":5126,
			"count":2,
			"type":"VEC3"
		},
		{
			"bufferView":175,
			"componentType":5126,
			"count":33,
			"type":"VEC3"
		},
		{
			"bufferView":176,
			"componentType":5126,
			"count":33,
			"type":"VEC4"
		},
		{
			"bufferView":177,
			"componentType":5126,
			"count":2,
			"type":"VEC3"
		},
		{
			"bufferView":178,
			"componentType":5126,
			"count":33,
			"type":"VEC3"
		},
		{
			"bufferView":179,
			"componentType":5126,
			"count":33,
			"type":"VEC4"
		},
		{
			"bufferView":180,
			"componentType":5126,
			"count":2,
			"type":"VEC3"
		},
		{
			"bufferView":181,
			"componentType":5126,
			"count":33,
			"type":"VEC4"
		},
		{
			"bufferView":182,
			"componentType":5126,
			"count":2,
			"type":"VEC3"
		},
		{
			"bufferView":183,
			"componentType":5126,
			"count":2,
			"type":"VEC3"
		},
		{
			"bufferView":184,
			"componentType":5126,
			"count":33,
			"type":"VEC4"
		},
		{
			"bufferView":185,
			"componentType":5126,
			"count":2,
			"type":"VEC3"
		},
		{
			"bufferView":186,
			"componentType":5126,
			"count":2,
			"type":"VEC3"
		},
		{
			"bufferView":187,
			"componentType":5126,
			"count":33,
			"type":"VEC4"
		},
		{
			"bufferView":188,
			"componentType":5126,
			"count":33,
			"type":"VEC3"
		},
		{
			"bufferView":189,
			"componentType":5126,
			"count":33,
			"type":"VEC4"
		},
		{
			"bufferView":190,
			"componentType":5126,
			"count":2,
			"type":"VEC3"
		},
		{
			"bufferView":191,
			"componentType":5126,
			"count":33,
			"type":"VEC4"
		},
		{
			"bufferView":192,
			"componentType":5126,
			"count":2,
			"type":"VEC3"
		},
		{
			"bufferView":193,
			"componentType":5126,
			"count":2,
			"type":"VEC3"
		},
		{
			"bufferView":194,
			"componentType":5126,
			"count":33,
			"type":"VEC4"
		},
		{
			"bufferView":195,
			"componentType":5126,
			"count":2,
			"type":"VEC3"
		},
		{
			"bufferView":196,
			"componentType":5126,
			"count":33,
			"type":"VEC4"
		}
	],
	"bufferViews":[
		{
			"buffer":0,
			"byteLength":2424,
			"byteOffset":0,
			"target":34962
		},
		{
			"buffer":0,
			"byteLength":2424,
			"byteOffset":2424,
			"target":34962
		},
		{
			"buffer":0,
			"byteLength":1616,
			"byteOffset":4848,
			"target":34962
		},
		{
			"buffer":0,
			"byteLength":808,
			"byteOffset":6464,
			"target":34962
		},
		{
			"buffer":0,
			"byteLength":3232,
			"byteOffset":7272,
			"target":34962
		},
		{
			"buffer":0,
			"byteLength":624,
			"byteOffset":10504,
			"target":34963
		},
		{
			"buffer":0,
			"byteLength":1280,
			"byteOffset":11128
		},
		{
			"buffer":0,
			"byteLength":3396,
			"byteOffset":12408,
			"target":34962
		},
		{
			"buffer":0,
			"byteLength":3396,
			"byteOffset":15804,
			"target":34962
		},
		{
			"buffer":0,
			"byteLength":2264,
			"byteOffset":19200,
			"target":34962
		},
		{
			"buffer":0,
			"byteLength":1132,
			"byteOffset":21464,
			"target":34962
		},
		{
			"buffer":0,
			"byteLength":4528,
			"byteOffset":22596,
			"target":34962
		},
		{
			"buffer":0,
			"byteLength":930,
			"byteOffset":27124,
			"target":34963
		},
		{
			"buffer":0,
			"byteLength":2844,
			"byteOffset":28056,
			"target":34962
		},
		{
			"buffer":0,
			"byteLength":2844,
			"byteOffset":30900,
			"target":34962
		},
		{
			"buffer":0,
			"byteLength":1896,
			"byteOffset":33744,
			"target":34962
		},
		{
			"buffer":0,
			"byteLength":948,
			"byteOffset":35640,
			"target":34962
		},
		{
			"buffer":0,
			"byteLength":3792,
			"byteOffset":36588,
			"target":34962
		},
		{
			"buffer":0,
			"byteLength":1518,
			"byteOffset":40380,
			"target":34963
		},
		{
			"buffer":0,
			"byteLength":2760,
			"byteOffset":41900,
			"target":34962
		},
		{
			"buffer":0,
			"byteLength":2760,
			"byteOffset":44660,
			"target":34962
		},
		{
			"buffer":0,
			"byteLength":1840,
			"byteOffset":47420,
			"target":34962
		},
		{
			"buffer":0,
			"byteLength":920,
			"byteOffset":49260,
			"target":34962
		},
		{
			"buffer":0,
			"byteLength":3680,
			"byteOffset":50180,
			"target":34962
		},
		{
			"buffer":0,
			"byteLength":1416,
			"byteOffset":53860,
			"target":34963
		},
		{
			"buffer":0,
			"byteLength":636,
			"byteOffset":55276,
			"target":34962
		},
		{
			"buffer":0,
			"byteLength":636,
			"byteOffset":55912,
			"target":34962
		},
		{
			"buffer":0,
			"byteLength":424,
			"byteOffset":56548,
			"target":34962
		},
		{
			"buffer":0,
			"byteLength":212,
			"byteOffset":56972,
			"target":34962
		},
		{
			"buffer":0,
			"byteLength":848,
			"byteOffset":57184,
			"target":34962
		},
		{
			"buffer":0,
			"byteLength":264,
			"byteOffset":58032,
			"target":34963
		},
		{
			"buffer":0,
			"byteLength":96,
			"byteOffset":58296,
			"target":34962
		},
		{
			"buffer":0,
			"byteLength":96,
			"byteOffset":58392,
			"target":34962
		},
		{
			"buffer":0,
			"byteLength":64,
			"byteOffset":58488,
			"target":34962
		},
		{
			"buffer":0,
			"byteLength":32,
			"byteOffset":58552,
			"target":34962
		},
		{
			"buffer":0,
			"byteLength":128,
			"byteOffset":58584,
			"target":34962
		},
		{
			"buffer":0,
			"byteLength":24,
			"byteOffset":58712,
			"target":34963
		},
		{
			"buffer":0,
			"byteLength":912,
			"byteOffset":58736,
			"target":34962
		},
		{
			"buffer":0,
			"byteLength":912,
			"byteOffset":59648,
			"target":34962
		},
		{
			"buffer":0,
			"byteLength":608,
			"byteOffset":60560,
			"target":34962
		},
		{
			"buffer":0,
			"byteLength":304,
			"byteOffset":61168,
			"target":34962
		},
		{
			"buffer":0,
			"byteLength":1216,
			"byteOffset":61472,
			"target":34962
		},
		{
			"buffer":0,
			"byteLength":252,
			"byteOffset":62688,
			"target":34963
		},
		{
			"buffer":0,
			"byteLength":432,
			"byteOffset":62940,
			"target":34962
		},
		{
			"buffer":0,
			"byteLength":432,
			"byteOffset":63372,
			"target":34962
		},
		{
			"buffer":0,
			"byteLength":288,
			"byteOffset":63804,
			"target":34962
		},
		{
			"buffer":0,
			"byteLength":144,
			"byteOffset":64092,
			"target":34962
		},
		{
			"buffer":0,
			"byteLength":576,
			"byteOffset":64236,
			"target":34962
		},
		{
			"buffer":0,
			"byteLength":108,
			"byteOffset":64812,
			"target":34963
		},
		{
			"buffer":0,
			"byteLength":1008,
			"byteOffset":64920,
			"target":34962
		},
		{
			"buffer":0,
			"byteLength":1008,
			"byteOffset":65928,
			"target":34962
		},
		{
			"buffer":0,
			"byteLength":672,
			"byteOffset":66936,
			"target":34962
		},
		{
			"buffer":0,
			"byteLength":336,
			"byteOffset":67608,
			"target":34962
		},
		{
			"buffer":0,
			"byteLength":1344,
			"byteOffset":67944,
			"target":34962
		},
		{
			"buffer":0,
			"byteLength":336,
			"byteOffset":69288,
			"target":34963
		},
		{
			"buffer":0,
			"byteLength":672,
			"byteOffset":69624,
			"target":34962
		},
		{
			"buffer":0,
			"byteLength":672,
			"byteOffset":70296,
			"target":34962
		},
		{
			"buffer":0,
			"byteLength":448,
			"byteOffset":70968,
			"target":34962
		},
		{
			"buffer":0,
			"byteLength":224,
			"byteOffset":71416,
			"target":34962
		},
		{
			"buffer":0,
			"byteLength":896,
			"byteOffset":71640,
			"target":34962
		},
		{
			"buffer":0,
			"byteLength":168,
			"byteOffset":72536,
			"target":34963
		},
		{
			"buffer":0,
			"byteLength":912,
			"byteOffset":72704,
			"target":34962
		},
		{
			"buffer":0,
			"byteLength":912,
			"byteOffset":73616,
			"target":34962
		},
		{
			"buffer":0,
			"byteLength":608,
			"byteOffset":74528,
			"target":34962
		},
		{
			"buffer":0,
			"byteLength":304,
			"byteOffset":75136,
			"target":34962
		},
		{
			"buffer":0,
			"byteLength":1216,
			"byteOffset":75440,
			"target":34962
		},
		{
			"buffer":0,
			"byteLength":252,
			"byteOffset":76656,
			"target":34963
		},
		{
			"buffer":0,
			"byteLength":432,
			"byteOffset":76908,
			"target":34962
		},
		{
			"buffer":0,
			"byteLength":432,
			"byteOffset":77340,
			"target":34962
		},
		{
			"buffer":0,
			"byteLength":288,
			"byteOffset":77772,
			"target":34962
		},
		{
			"buffer":0,
			"byteLength":144,
			"byteOffset":78060,
			"target":34962
		},
		{
			"buffer":0,
			"byteLength":576,
			"byteOffset":78204,
			"target":34962
		},
		{
			"buffer":0,
			"byteLength":108,
			"byteOffset":78780,
			"target":34963
		},
		{
			"buffer":0,
			"byteLength":1008,
			"byteOffset":78888,
			"target":34962
		},
		{
			"buffer":0,
			"byteLength":1008,
			"byteOffset":79896,
			"target":34962
		},
		{
			"buffer":0,
			"byteLength":672,
			"byteOffset":80904,
			"target":34962
		},
		{
			"buffer":0,
			"byteLength":336,
			"byteOffset":81576,
			"target":34962
		},
		{
			"buffer":0,
			"byteLength":1344,
			"byteOffset":81912,
			"target":34962
		},
		{
			"buffer":0,
			"byteLength":336,
			"byteOffset":83256,
			"target":34963
		},
		{
			"buffer":0,
			"byteLength":1632,
			"byteOffset":83592,
			"target":34962
		},
		{
			"buffer":0,
			"byteLength":1632,
			"byteOffset":85224,
			"target":34962
		},
		{
			"buffer":0,
			"byteLength":1088,
			"byteOffset":86856,
			"target":34962
		},
		{
			"buffer":0,
			"byteLength":544,
			"byteOffset":87944,
			"target":34962
		},
		{
			"buffer":0,
			"byteLength":2176,
			"byteOffset":88488,
			"target":34962
		},
		{
			"buffer":0,
			"byteLength":408,
			"byteOffset":90664,
			"target":34963
		},
		{
			"buffer":0,
			"byteLength":132,
			"byteOffset":91072
		},
		{
			"buffer":0,
			"byteLength":396,
			"byteOffset":91204
		},
		{
			"buffer":0,
			"byteLength":8,
			"byteOffset":91600
		},
		{
			"buffer":0,
			"byteLength":32,
			"byteOffset":91608
		},
		{
			"buffer":0,
			"byteLength":24,
			"byteOffset":91640
		},
		{
			"buffer":0,
			"byteLength":24,
			"byteOffset":91664
		},
		{
			"buffer":0,
			"byteLength":528,
			"byteOffset":91688
		},
		{
			"buffer":0,
			"byteLength":24,
			"byteOffset":92216
		},
		{
			"buffer":0,
			"byteLength":528,
			"byteOffset":92240
		},
		{
			"buffer":0,
			"byteLength":24,
			"byteOffset":92768
		},
		{
			"buffer":0,
			"byteLength":528,
			"byteOffset":92792
		},
		{
			"buffer":0,
			"byteLength":24,
			"byteOffset":93320
		},
		{
			"buffer":0,
			"byteLength":528,
			"byteOffset":93344
		},
		{
			"buffer":0,
			"byteLength":24,
			"byteOffset":93872
		},
		{
			"buffer":0,
			"byteLength":24,
			"byteOffset":93896
		},
		{
			"buffer":0,
			"byteLength":528,
			"byteOffset":93920
		},
		{
			"buffer":0,
			"byteLength":24,
			"byteOffset":94448
		},
		{
			"buffer":0,
			"byteLength":24,
			"byteOffset":94472
		},
		{
			"buffer":0,
			"byteLength":528,
			"byteOffset":94496
		},
		{
			"buffer":0,
			"byteLength":24,
			"byteOffset":95024
		},
		{
			"buffer":0,
			"byteLength":528,
			"byteOffset":95048
		},
		{
			"buffer":0,
			"byteLength":24,
			"byteOffset":95576
		},
		{
			"buffer":0,
			"byteLength":528,
			"byteOffset":95600
		},
		{
			"buffer":0,
			"byteLength":24,
			"byteOffset":96128
		},
		{
			"buffer":0,
			"byteLength":396,
			"byteOffset":96152
		},
		{
			"buffer":0,
			"byteLength":528,
			"byteOffset":96548
		},
		{
			"buffer":0,
			"byteLength":24,
			"byteOffset":97076
		},
		{
			"buffer":0,
			"byteLength":32,
			"byteOffset":97100
		},
		{
			"buffer":0,
			"byteLength":396,
			"byteOffset":97132
		},
		{
			"buffer":0,
			"byteLength":32,
			"byteOffset":97528
		},
		{
			"buffer":0,
			"byteLength":24,
			"byteOffset":97560
		},
		{
			"buffer":0,
			"byteLength":528,
			"byteOffset":97584
		},
		{
			"buffer":0,
			"byteLength":24,
			"byteOffset":98112
		},
		{
			"buffer":0,
			"byteLength":528,
			"byteOffset":98136
		},
		{
			"buffer":0,
			"byteLength":24,
			"byteOffset":98664
		},
		{
			"buffer":0,
			"byteLength":528,
			"byteOffset":98688
		},
		{
			"buffer":0,
			"byteLength":396,
			"byteOffset":99216
		},
		{
			"buffer":0,
			"byteLength":32,
			"byteOffset":99612
		},
		{
			"buffer":0,
			"byteLength":24,
			"byteOffset":99644
		},
		{
			"buffer":0,
			"byteLength":528,
			"byteOffset":99668
		},
		{
			"buffer":0,
			"byteLength":24,
			"byteOffset":100196
		},
		{
			"buffer":0,
			"byteLength":528,
			"byteOffset":100220
		},
		{
			"buffer":0,
			"byteLength":24,
			"byteOffset":100748
		},
		{
			"buffer":0,
			"byteLength":528,
			"byteOffset":100772
		},
		{
			"buffer":0,
			"byteLength":24,
			"byteOffset":101300
		},
		{
			"buffer":0,
			"byteLength":528,
			"byteOffset":101324
		},
		{
			"buffer":0,
			"byteLength":528,
			"byteOffset":101852
		},
		{
			"buffer":0,
			"byteLength":528,
			"byteOffset":102380
		},
		{
			"buffer":0,
			"byteLength":528,
			"byteOffset":102908
		},
		{
			"buffer":0,
			"byteLength":32,
			"byteOffset":103436
		},
		{
			"buffer":0,
			"byteLength":528,
			"byteOffset":103468
		},
		{
			"buffer":0,
			"byteLength":528,
			"byteOffset":103996
		},
		{
			"buffer":0,
			"byteLength":528,
			"byteOffset":104524
		},
		{
			"buffer":0,
			"byteLength":528,
			"byteOffset":105052
		},
		{
			"buffer":0,
			"byteLength":24,
			"byteOffset":105580
		},
		{
			"buffer":0,
			"byteLength":24,
			"byteOffset":105604
		},
		{
			"buffer":0,
			"byteLength":32,
			"byteOffset":105628
		},
		{
			"buffer":0,
			"byteLength":528,
			"byteOffset":105660
		},
		{
			"buffer":0,
			"byteLength":528,
			"byteOffset":106188
		},
		{
			"buffer":0,
			"byteLength":24,
			"byteOffset":106716
		},
		{
			"buffer":0,
			"byteLength":528,
			"byteOffset":106740
		},
		{
			"buffer":0,
			"byteLength":528,
			"byteOffset":107268
		},
		{
			"buffer":0,
			"byteLength":528,
			"byteOffset":107796
		},
		{
			"buffer":0,
			"byteLength":396,
			"byteOffset":108324
		},
		{
			"buffer":0,
			"byteLength":528,
			"byteOffset":108720
		},
		{
			"buffer":0,
			"byteLength":24,
			"byteOffset":109248
		},
		{
			"buffer":0,
			"byteLength":528,
			"byteOffset":109272
		},
		{
			"buffer":0,
			"byteLength":24,
			"byteOffset":109800
		},
		{
			"buffer":0,
			"byteLength":528,
			"byteOffset":109824
		},
		{
			"buffer":0,
			"byteLength":24,
			"byteOffset":110352
		},
		{
			"buffer":0,
			"byteLength":24,
			"byteOffset":110376
		},
		{
			"buffer":0,
			"byteLength":528,
			"byteOffset":110400
		},
		{
			"buffer":0,
			"byteLength":24,
			"byteOffset":110928
		},
		{
			"buffer":0,
			"byteLength":528,
			"byteOffset":110952
		},
		{
			"buffer":0,
			"byteLength":24,
			"byteOffset":111480
		},
		{
			"buffer":0,
			"byteLength":24,
			"byteOffset":111504
		},
		{
			"buffer":0,
			"byteLength":528,
			"byteOffset":111528
		},
		{
			"buffer":0,
			"byteLength":24,
			"byteOffset":112056
		},
		{
			"buffer":0,
			"byteLength":24,
			"byteOffset":112080
		},
		{
			"buffer":0,
			"byteLength":528,
			"byteOffset":112104
		},
		{
			"buffer":0,
			"byteLength":24,
			"byteOffset":112632
		},
		{
			"buffer":0,
			"byteLength":24,
			"byteOffset":112656
		},
		{
			"buffer":0,
			"byteLength":528,
			"byteOffset":112680
		},
		{
			"buffer":0,
			"byteLength":24,
			"byteOffset":113208
		},
		{
			"buffer":0,
			"byteLength":24,
			"byteOffset":113232
		},
		{
			"buffer":0,
			"byteLength":528,
			"byteOffset":113256
		},
		{
			"buffer":0,
			"byteLength":24,
			"byteOffset":113784
		},
		{
			"buffer":0,
			"byteLength":24,
			"byteOffset":113808
		},
		{
			"buffer":0,
			"byteLength":528,
			"byteOffset":113832
		},
		{
			"buffer":0,
			"byteLength":24,
			"byteOffset":114360
		},
		{
			"buffer":0,
			"byteLength":396,
			"byteOffset":114384
		},
		{
			"buffer":0,
			"byteLength":528,
			"byteOffset":114780
		},
		{
			"buffer":0,
			"byteLength":24,
			"byteOffset":115308
		},
		{
			"buffer":0,
			"byteLength":396,
			"byteOffset":115332
		},
		{
			"buffer":0,
			"byteLength":528,
			"byteOffset":115728
		},
		{
			"buffer":0,
			"byteLength":24,
			"byteOffset":116256
		},
		{
			"buffer":0,
			"byteLength":528,
			"byteOffset":116280
		},
		{
			"buffer":0,
			"byteLength":24,
			"byteOffset":116808
		},
		{
			"buffer":0,
			"byteLength":24,
			"byteOffset":116832
		},
		{
			"buffer":0,
			"byteLength":528,
			"byteOffset":116856
		},
		{
			"buffer":0,
			"byteLength":24,
			"byteOffset":117384
		},
		{
			"buffer":0,
			"byteLength":24,
			"byteOffset":117408
		},
		{
			"buffer":0,
			"byteLength":528,
			"byteOffset":117432
		},
		{
			"buffer":0,
			"byteLength":396,
			"byteOffset":117960
		},
		{
			"buffer":0,
			"byteLength":528,
			"byteOffset":118356
		},
		{
			"buffer":0,
			"byteLength":24,
			"byteOffset":118884
		},
		{
			"buffer":0,
			"byteLength":528,
			"byteOffset":118908
		},
		{
			"buffer":0,
			"byteLength":24,
			"byteOffset":119436
		},
		{
			"buffer":0,
			"byteLength":24,
			"byteOffset":119460
		},
		{
			"buffer":0,
			"byteLength":528,
			"byteOffset":119484
		},
		{
			"buffer":0,
			"byteLength":24,
			"byteOffset":120012
		},
		{
			"buffer":0,
			"byteLength":528,
			"byteOffset":120036
		}
	],
	"buffers":[
		{
			"byteLength":120564,
			"uri":"mage.bin"
		}
	]
}
